<svg xmlns="http://www.w3.org/2000/svg" viewBox="0 0 534.98 116.73" width="140">
    <defs>
        <style>
            .b{fill:#61b6e5}.g{fill:#282626}
        </style>
    </defs>
    <title>
        Pricoli Logo
    </title>
    <path d="M34.41,102.73,12,19.08,47.94,9.45q19-5.08,29.7-.12t15,20.85q4,14.81-2.09,23.74T67.34,67.45L57.91,70l6.62,24.68ZM48.46,34.24l3.73,13.94,4.69-1.26q4.27-1.14,6.09-3.56a6.35,6.35,0,0,0,.91-5.72,6.44,6.44,0,0,0-3.73-4.55,10.62,10.62,0,0,0-7-.11Z" style="fill:#0f0"/>
    <path class="b" d="M105.39,89.27l10.55-86,38.87,4.77q16.91,2.09,24.92,10.63T186,41.3q-1.12,9.15-6.34,14.54a17.57,17.57,0,0,1-13,5.43l18.65,37.82-34.64-4.26-11.54-30.2L135.68,93Zm38.13-60.1L141.46,46l4.81.59q4.41.54,7-1.31a7.89,7.89,0,0,0,3.13-5.84,8.25,8.25,0,0,0-1.6-6.61q-2.11-2.49-6.51-3Z"/>
    <path d="M229.56,14.29a13.33,13.33,0,0,1-4.32,10.44q-4.31,3.87-11.65,3.87t-11.77-3.9a13.25,13.25,0,0,1-4.38-10.41q0-6.51,4.32-10.27T213.59.27Q221,.27,225.3,4T229.56,14.29ZM198.68,94.5V33.33h29.7V94.5Z" style="fill:#a95094"/>
    <path d="M311,52.32A31.55,31.55,0,0,0,304.5,44a22.32,22.32,0,0,0-8.35-4.65q-7.29-2.23-13.11.91t-8.1,10.6q-2.22,7.3.68,12.95t10,7.83a23.72,23.72,0,0,0,9.3.84,46.58,46.58,0,0,0,11.49-2.89L296,100.41a57.18,57.18,0,0,1-10.63,0,50.3,50.3,0,0,1-10-2,51.11,51.11,0,0,1-11.23-4.92,42.54,42.54,0,0,1-8.95-6.94A46.21,46.21,0,0,1,243.4,65.48a45.41,45.41,0,0,1,1.17-24A47.55,47.55,0,0,1,253,25.3a43.59,43.59,0,0,1,30.69-16,50.34,50.34,0,0,1,18.52,2.23,49.18,49.18,0,0,1,18.18,10.13Z" style="fill:#ff6780"/>
    <path d="M415.78,51.38a46,46,0,0,1-3.37,17.71,44,44,0,0,1-9.88,14.64,45.21,45.21,0,0,1-15,9.7,50.23,50.23,0,0,1-36.23,0,45,45,0,0,1-15-9.82,41.87,41.87,0,0,1-9.76-14.43,46.87,46.87,0,0,1-3.31-17.8,47.35,47.35,0,0,1,3.31-17.87A41.82,41.82,0,0,1,336.28,19a44.53,44.53,0,0,1,15-9.73,51.34,51.34,0,0,1,36.43,0,45.18,45.18,0,0,1,15,9.73,43.22,43.22,0,0,1,9.73,14.55A46.81,46.81,0,0,1,415.78,51.38ZM369.46,67.7A13.49,13.49,0,0,0,380,63.24q4-4.47,4-11.86t-4-12a14.56,14.56,0,0,0-21.14,0q-4,4.55-4,12t4,11.86A13.58,13.58,0,0,0,369.46,67.7Z" style="fill:#ff7900"/>
    <path d="M418.56,81.38,448.18,0l29.3,10.66-20,55L485.93,76l-9.61,26.41Z" style="fill:#ff0"/>
    <path class="b" d="M535,14.29a13.33,13.33,0,0,1-4.32,10.44Q526.34,28.6,519,28.6t-11.77-3.9a13.25,13.25,0,0,1-4.38-10.41q0-6.51,4.32-10.27T519,.27q7.46,0,11.71,3.75T535,14.29ZM504.1,94.5V33.33h29.7V94.5Z"/>
    <path class="g" d="M22.41,116.73,0,33.08l35.94-9.63q19-5.09,29.7-.12t15,20.85q4,14.81-2.09,23.74T55.34,81.45L45.91,84l6.62,24.68ZM36.46,48.24l3.73,13.94,4.69-1.26q4.27-1.14,6.09-3.56a6.35,6.35,0,0,0,.91-5.72,6.44,6.44,0,0,0-3.73-4.55,10.62,10.62,0,0,0-7-.11Z"/>
    <path class="g" d="M93.39,103.27l10.55-86,38.87,4.77q16.91,2.09,24.92,10.63T174,55.3q-1.12,9.15-6.34,14.54a17.57,17.57,0,0,1-13,5.43l18.65,37.82-34.64-4.26-11.54-30.2L123.68,107Zm38.13-60.1L129.46,60l4.81.59q4.41.54,7-1.31a7.89,7.89,0,0,0,3.13-5.84,8.25,8.25,0,0,0-1.6-6.61q-2.11-2.49-6.51-3Z"/>
    <path class="g" d="M217.56,28.29a13.33,13.33,0,0,1-4.32,10.44q-4.31,3.87-11.65,3.87t-11.77-3.9a13.25,13.25,0,0,1-4.38-10.41q0-6.51,4.32-10.27t11.83-3.75q7.46,0,11.71,3.75T217.56,28.29ZM186.68,108.5V47.33h29.7V108.5Z"/>
    <path class="g" d="M299,66.32A31.55,31.55,0,0,0,292.5,58a22.32,22.32,0,0,0-8.35-4.65q-7.29-2.23-13.11.91t-8.1,10.6q-2.22,7.31.68,13t10,7.83a23.72,23.72,0,0,0,9.3.84,46.58,46.58,0,0,0,11.49-2.89L284,114.41a57.18,57.18,0,0,1-10.63,0,50.3,50.3,0,0,1-10-2,51.11,51.11,0,0,1-11.23-4.92,42.54,42.54,0,0,1-8.95-6.94A46.21,46.21,0,0,1,231.4,79.48a45.41,45.41,0,0,1,1.17-24A47.55,47.55,0,0,1,241,39.3a43.59,43.59,0,0,1,30.69-16,50.34,50.34,0,0,1,18.52,2.23,49.18,49.18,0,0,1,18.18,10.13Z"/>
    <path class="g" d="M403.78,65.38a46,46,0,0,1-3.37,17.71,44,44,0,0,1-9.88,14.64,45.21,45.21,0,0,1-15,9.7,50.23,50.23,0,0,1-36.23,0,45,45,0,0,1-15-9.82,41.87,41.87,0,0,1-9.76-14.43,46.87,46.87,0,0,1-3.31-17.8,47.35,47.35,0,0,1,3.31-17.87A41.82,41.82,0,0,1,324.28,33a44.53,44.53,0,0,1,15-9.73,51.34,51.34,0,0,1,36.43,0,45.18,45.18,0,0,1,15,9.73,43.22,43.22,0,0,1,9.73,14.55A46.81,46.81,0,0,1,403.78,65.38ZM357.46,81.7A13.49,13.49,0,0,0,368,77.24q4-4.47,4-11.86t-4-12a14.56,14.56,0,0,0-21.14,0q-4,4.55-4,11.95t4,11.86A13.58,13.58,0,0,0,357.46,81.7Z"/>
    <path class="g" d="M406.56,95.38,436.18,14l29.3,10.66-20,55L473.93,90l-9.61,26.41Z"/>
    <path class="g" d="M523,28.29a13.33,13.33,0,0,1-4.32,10.44Q514.34,42.6,507,42.6t-11.77-3.9a13.25,13.25,0,0,1-4.38-10.41q0-6.51,4.32-10.27T507,14.27q7.46,0,11.71,3.75T523,28.29ZM492.1,108.5V47.33h29.7V108.5Z"/>
</svg>
